<?xml version="1.0" encoding="UTF-8" standalone="no"?>
<svg
   width="64"
   height="64"
   version="1.1"
   id="svg4"
   sodipodi:docname="red-arch.svg"
   inkscape:version="1.3.2 (091e20ef0f, 2023-11-25, custom)"
   xmlns:inkscape="http://www.inkscape.org/namespaces/inkscape"
   xmlns:sodipodi="http://sodipodi.sourceforge.net/DTD/sodipodi-0.dtd"
   xmlns="http://www.w3.org/2000/svg"
   xmlns:svg="http://www.w3.org/2000/svg">
  <defs
     id="defs4" />
  <sodipodi:namedview
     id="namedview4"
     pagecolor="#ffffff"
     bordercolor="#000000"
     borderopacity="0.25"
     inkscape:showpageshadow="2"
     inkscape:pageopacity="0.0"
     inkscape:pagecheckerboard="0"
     inkscape:deskcolor="#d1d1d1"
     inkscape:zoom="13.960988"
     inkscape:cx="33.020586"
     inkscape:cy="32.805701"
     inkscape:window-width="1876"
     inkscape:window-height="1172"
     inkscape:window-x="0"
     inkscape:window-y="0"
     inkscape:window-maximized="1"
     inkscape:current-layer="svg4" />
  <path
     style="opacity:0.2;stroke-width:1.58036"
     d="M 32.002044,1.5609756 C 29.150998,8.3752368 27.431287,12.838465 24.258425,19.45009 c 1.94729,2.011339 4.333426,4.342079 8.208481,6.987417 -4.167637,-1.673275 -7.00565,-3.341155 -9.131733,-5.084544 C 19.274832,29.616923 12.90635,41.377136 0,64 10.143077,58.288144 18.559451,54.770953 25.886964,53.426263 25.571603,52.106905 25.396065,50.673392 25.409076,49.182795 l 0.0093,-0.307637 c 0.159296,-6.339812 2.994223,-11.964588 6.999309,-11.634754 4.005099,0.329835 6.341652,6.493771 6.179112,12.833562 -0.02944,1.192497 -0.165696,2.337405 -0.406361,3.399851 C 45.436627,54.859761 54.000287,58.367428 64,63.999988 62.026723,60.457441 60.258228,57.270085 58.577508,54.228636 55.92805,52.224257 53.171297,49.617292 47.534267,46.794646 c 3.871808,0.983171 6.654548,2.112225 8.816404,3.380829 C 39.250903,19.11455 37.862761,14.987798 32.001426,1.5628705 Z"
     id="path2" />
  <path
     style="fill:#aa0000;fill-opacity:1;stroke-width:1.58036"
     d="m 32.002044,0 c -2.851046,6.8142612 -4.570757,11.27749 -7.743619,17.889114 1.94729,2.011339 4.333426,4.342079 8.208481,6.987417 -4.167637,-1.673275 -7.00565,-3.341154 -9.131733,-5.084543 C 19.274832,28.055949 12.90635,39.816161 0,62.439024 10.143077,56.727168 18.559451,53.209977 25.886964,51.865288 25.571603,50.545929 25.396065,49.112416 25.409076,47.62182 l 0.0093,-0.307638 c 0.159296,-6.339811 2.994223,-11.964588 6.999309,-11.634753 4.005099,0.329834 6.341652,6.49377 6.179112,12.833561 -0.02944,1.192497 -0.165696,2.337405 -0.406361,3.399851 7.24623,1.385944 15.80989,4.893613 25.809603,10.526171 -1.973239,-3.542547 -3.741734,-6.729903 -5.422454,-9.771352 -2.649458,-2.004379 -5.406211,-4.611344 -11.04324,-7.43399 3.871807,0.983172 6.654547,2.112225 8.816403,3.380829 C 39.250903,17.553574 37.862761,13.426823 32.001426,0.001895 Z"
     id="path3" />
</svg>
