<?xml version="1.0" encoding="UTF-8" standalone="no"?>
<svg
   width="64"
   height="64"
   version="1.1"
   id="svg4"
   sodipodi:docname="red-arch-alt-1.svg"
   inkscape:version="1.3.2 (091e20ef0f, 2023-11-25, custom)"
   xmlns:inkscape="http://www.inkscape.org/namespaces/inkscape"
   xmlns:sodipodi="http://sodipodi.sourceforge.net/DTD/sodipodi-0.dtd"
   xmlns="http://www.w3.org/2000/svg"
   xmlns:svg="http://www.w3.org/2000/svg">
  <defs
     id="defs4" />
  <sodipodi:namedview
     id="namedview4"
     pagecolor="#ffffff"
     bordercolor="#000000"
     borderopacity="0.25"
     inkscape:showpageshadow="2"
     inkscape:pageopacity="0.0"
     inkscape:pagecheckerboard="0"
     inkscape:deskcolor="#d1d1d1"
     inkscape:zoom="14.5625"
     inkscape:cx="32"
     inkscape:cy="32"
     inkscape:window-width="1876"
     inkscape:window-height="1172"
     inkscape:window-x="0"
     inkscape:window-y="0"
     inkscape:window-maximized="1"
     inkscape:current-layer="svg4" />
  <circle
     style="fill:#aa0000;fill-opacity:1"
     cx="32"
     cy="32"
     r="28"
     id="circle2" />
  <path
     style="fill:#ffffff"
     d="m 32.001272,8.2 c -1.781906,4.365386 -2.856728,7.224642 -4.83977,11.460214 1.217058,1.288514 2.708396,2.781644 5.13031,4.476314 C 29.687034,23.064586 27.913272,21.9961 26.584468,20.879242 24.04675,26.173342 20.066442,33.707228 11.999957,48.2 18.339392,44.540842 23.599636,42.287642 28.17934,41.4262 27.98224,40.580986 27.872528,39.662642 27.88066,38.707728 l 0.0058,-0.19708 c 0.09956,-4.061442 1.871392,-7.664814 4.374576,-7.453514 2.503192,0.2113 3.96354,4.160072 3.861952,8.2215 -0.0184,0.763944 -0.10356,1.4974 -0.253976,2.17803 4.528902,0.88787 9.8812,3.13497 16.131032,6.743328 -1.2333,-2.269444 -2.338612,-4.311344 -3.389064,-6.259772 -1.655914,-1.284056 -3.378888,-2.954142 -6.902038,-4.7624 2.419884,0.629844 4.1591,1.353144 5.510262,2.165844 C 36.531818,19.445258 35.664228,16.801558 32.000886,8.201214 Z"
     id="path3" />
</svg>
